<svg width="100" height="100" viewBox="0 0 100 100" xmlns="http://www.w3.org/2000/svg">
  <defs>
    <style>
      .suit { fill: #1a0000; } /* dark red from original theme */
      .heart, .diamond { fill: #ff6666; } /* accent red from original theme */
    </style>
  </defs>
  <rect width="100" height="100" fill="#fff" />
  <!-- Row 1 -->
  <path class="suit heart" d="M25 15 a 10 10 0 0 1 20 0 q 0 10 -10 15 q -10 -5 -10 -15z" transform="translate(-10, 5)" />
  <path class="suit spade" d="M75 15 a 10 10 0 0 1 20 0 q 0 10 -10 15 q -10 -5 -10 -15z M75 32 l -10 -10 h 20 z" transform="translate(-10, 5)" />
  <!-- Row 2 -->
  <path class="suit diamond" d="M25 65 l 10 -12 l 10 12 l -10 12 z" transform="translate(-10, 5)" />
  <path class="suit club" d="M75 60 a 5 5 0 1 1 10 0 a 5 5 0 1 1 -10 0 m -4 0 a 5 5 0 1 1 10 0 a 5 5 0 1 1 -10 0 m 4 -8 a 5 5 0 1 1 10 0 a 5 5 0 1 1 -10 0 m 1 15 l -2 -10 h 12 l -2 10 z" transform="translate(-10, 5)" />
</svg>